# xmcd
#
# Track frame offsets:
#	150
#	13446
#	26659
#	40682
#	54189
#	69416
#	83769
#	97733
#	108568
#	123218
#	137062
#	150097
#	163801
#	178188
#	193158
#	207439
#	220269
#	233073
#	247248
#	261099
#	274994
#	289458
#	302765
#	316835
#	329682
#
# Disc length: 4585 seconds
#
# Revision: 0
# Processed by: cddbd v1.5.2PL0 Copyright (c) Steve Scherf et al.
# Submitted via: EasyCDDAExtractor 10.2.0.1
#
DISCID=6f11e719
DTITLE=Various Artist - The Road To Robert Johnson And Beyond - Disc A
DYEAR=2007
DGENRE=Blues
TTITLE0=Son House - Walkin' Blues
TTITLE1=Leroy Carr - Mean Mistreater Mama
TTITLE2=Johnny Temple - Lead Pencil Blues
TTITLE3=Skip James - Devil Got My Woman
TTITLE4=Blind Blake - Georgia Bound
TTITLE5=Lonnie Johnson - Blue Ghost Blues
TTITLE6=Carl Rafferty - Mr. Carl's Blues
TTITLE7=Blind Lemon Jefferson - Change My Luck Blues
TTITLE8=Tampa Red - Things 'Bout Coming My Way
TTITLE9=Peetie Wheatstraw - Police Station Blues
TTITLE10=Kokomo Arnold - Old Original Kokomo Blues
TTITLE11=Hambone Willie Newbern - Roll And Tumble Blues
TTITLE12=Ramblin' Thomas - No Job Blues
TTITLE13=Bid Bill Broonzy - Shelby County Blues
TTITLE14=Ma Rainey - Booze And Blues
TTITLE15=Charley Patton - You're Gonna Need Somebody When You Die
TTITLE16=Skip James - 20-20 Blues
TTITLE17=Kokomo Arnold - Milk Cow Blues
TTITLE18=Son House - Preachin' The Blues (Pt.1)
TTITLE19=Lonnie Johnson - Life Saver Blues
TTITLE20=Johnny Temple - The Evil Devil Blues
TTITLE21=Leroy Carr - When The Sun Goes Down
TTITLE22=Henry Thomas - Red River Blues
TTITLE23=Blind Lemon Jefferson - Dry Southern Blues
TTITLE24=Mississippi Sheiks - Show Me What You Got
EXTD=
EXTT0=
EXTT1=
EXTT2=
EXTT3=
EXTT4=
EXTT5=
EXTT6=
EXTT7=
EXTT8=
EXTT9=
EXTT10=
EXTT11=
EXTT12=
EXTT13=
EXTT14=
EXTT15=
EXTT16=
EXTT17=
EXTT18=
EXTT19=
EXTT20=
EXTT21=
EXTT22=
EXTT23=
EXTT24=
PLAYORDER=
